<svg width="178" height="29" viewBox="0 0 178 29" fill="none" xmlns="http://www.w3.org/2000/svg">
<path d="M111.311 19.8719V9.41909C111.311 9.05138 111.608 8.75231 111.977 8.75231H113.019C113.387 8.75231 113.686 9.05138 113.686 9.41909V13.1023H115.616V9.15188C115.616 8.78417 115.914 8.48633 116.283 8.48633H117.325C117.693 8.48633 117.992 8.78417 117.992 9.15188V19.8719C117.992 20.2396 117.693 20.5386 117.325 20.5386H116.283C115.914 20.5386 115.616 20.2396 115.616 19.8719V15.3221H113.686V19.8719C113.686 20.2396 113.387 20.5386 113.019 20.5386H111.977C111.608 20.5386 111.311 20.2396 111.311 19.8719ZM115.528 27.9063V23.446H104.097C103.73 23.446 103.432 23.1469 103.432 22.7792V21.9813C103.432 21.6136 103.73 21.3145 104.097 21.3145H117.325C117.693 21.3145 117.992 21.6136 117.992 21.9813V27.9063C117.992 28.274 117.693 28.5731 117.325 28.5731H116.194C115.826 28.5731 115.528 28.274 115.528 27.9063ZM109.69 9.88485V10.5725C109.69 10.9402 109.392 11.238 109.025 11.238H103.742V13.3695H108.803C109.17 13.3695 109.468 13.6674 109.468 14.0351V14.6773C109.468 15.0463 109.17 15.3441 108.803 15.3441H103.742V17.6313H104.208C105.839 17.6313 107.75 17.5614 109.677 17.3445C110.074 17.3003 110.423 17.6055 110.423 18.0051V18.6449C110.423 18.9796 110.177 19.2651 109.846 19.308C107.892 19.5581 105.884 19.65 104.208 19.65H101.989C101.62 19.65 101.322 19.3522 101.322 18.9845V9.88485C101.322 9.51714 101.62 9.21807 101.989 9.21807H109.025C109.392 9.21807 109.69 9.51714 109.69 9.88485Z" fill="#5B8DEC"/>
<path d="M136.419 20.5954C133.967 19.1993 131.844 17.6292 129.721 15.6105C127.597 17.6292 125.474 19.1993 123.021 20.5954C122.739 20.756 122.379 20.6861 122.174 20.4348L121.658 19.7999C121.403 19.4861 121.488 19.0241 121.832 18.8108C123.972 17.4895 125.838 16.0051 127.611 14.1899C128.101 13.7021 128.456 13.0144 128.456 12.192V9.77368C128.456 9.40597 128.754 9.10813 129.122 9.10813H130.319C130.688 9.10813 130.986 9.40597 130.986 9.77368V12.192C130.986 13.0144 131.341 13.7021 131.829 14.1899C133.603 16.0051 135.468 17.4895 137.608 18.8108C137.953 19.0241 138.037 19.4861 137.782 19.7999L137.266 20.4348C137.062 20.6861 136.701 20.756 136.419 20.5954ZM119.799 25.2433V24.4453C119.799 24.0764 120.098 23.7785 120.466 23.7785H138.998C139.366 23.7785 139.664 24.0764 139.664 24.4453V25.2433C139.664 25.611 139.366 25.9088 138.998 25.9088H120.466C120.098 25.9088 119.799 25.611 119.799 25.2433Z" fill="#5B8DEC"/>
<path d="M153.83 27.9065V9.15202C153.83 8.78431 154.128 8.48646 154.496 8.48646H155.627C155.996 8.48646 156.294 8.78431 156.294 9.15202V14.8111H158.646C159.014 14.8111 159.313 15.1101 159.313 15.4779V16.2758C159.313 16.6447 159.014 16.9426 158.646 16.9426H156.294V27.9065C156.294 28.2742 155.996 28.572 155.627 28.572H154.496C154.128 28.572 153.83 28.2742 153.83 27.9065ZM145.64 11.194C143.732 11.194 142.311 12.9027 142.311 15.6556C142.311 18.4073 143.732 20.1171 145.64 20.1171C147.548 20.1171 148.969 18.4073 148.969 15.6556C148.969 12.9027 147.548 11.194 145.64 11.194ZM145.64 22.2033C142.599 22.2033 139.825 19.7837 139.825 15.6556C139.825 11.5262 142.599 9.10789 145.64 9.10789C148.681 9.10789 151.455 11.5262 151.455 15.6556C151.455 19.7837 148.681 22.2033 145.64 22.2033Z" fill="#5B8DEC"/>
<path d="M175.536 27.9065V9.15202C175.536 8.78431 175.834 8.48646 176.201 8.48646H177.333C177.7 8.48646 177.999 8.78431 177.999 9.15202V27.9065C177.999 28.2742 177.7 28.572 177.333 28.572H176.201C175.834 28.572 175.536 28.2742 175.536 27.9065ZM166.946 11.194C165.038 11.194 163.573 12.9027 163.573 15.6556C163.573 18.4073 165.038 20.1171 166.946 20.1171C168.854 20.1171 170.319 18.4073 170.319 15.6556C170.319 12.9027 168.854 11.194 166.946 11.194ZM166.946 22.2033C163.861 22.2033 161.086 19.7837 161.086 15.6556C161.086 11.5262 163.861 9.10789 166.946 9.10789C170.031 9.10789 172.806 11.5262 172.806 15.6556C172.806 19.7837 170.031 22.2033 166.946 22.2033Z" fill="#5B8DEC"/>
<path d="M18.9751 6.84231V6.23681C18.9751 5.83233 18.9751 5.22071 17.959 5.22071H1.01611C-5.8446e-07 5.22071 0 5.83233 0 6.23681V6.84231C0 7.24679 -5.8446e-07 7.85841 1.01611 7.85841H8.1693V27.5554C8.1693 28.4894 8.43282 28.5728 9.18663 28.5728H9.78845C10.4797 28.5728 10.8046 28.4723 10.8046 27.5554V7.85841H17.959C18.9751 7.85841 18.9751 7.24679 18.9751 6.84231Z" fill="#5B8DEC"/>
<path d="M48.7552 16.2967L55.6853 6.84167C56.0383 6.36119 56.1351 5.97877 55.9795 5.67235C55.7503 5.22006 55.0872 5.22006 54.8678 5.22006H54.0943C53.7953 5.22006 53.5759 5.24825 53.267 5.64538L47.1802 14.0034L41.4512 5.65028C41.1644 5.25928 40.9867 5.22006 40.6227 5.22006H39.8762C39.6703 5.22006 39.0415 5.22006 38.8074 5.65641C38.6468 5.95426 38.7216 6.333 39.0366 6.80857L45.5659 16.3029L38.132 26.9652C37.7852 27.4383 37.6908 27.8171 37.8452 28.1198C38.0744 28.5721 38.74 28.5721 38.9594 28.5721H39.7046C40.0196 28.5721 40.2635 28.5415 40.543 28.1309L47.1458 18.6133L53.544 28.1345C53.8357 28.5415 54.0649 28.5721 54.3812 28.5721H55.1546C55.3899 28.5721 56.1045 28.5721 56.3263 28.1015C56.5421 27.6443 56.118 27.1295 55.9991 26.9885L48.7552 16.2967Z" fill="#5B8DEC"/>
<path d="M27.1344 5.86824L27.132 5.86212C26.8844 5.26765 26.5706 5.21985 26.1869 5.21985H25.6427C25.329 5.21985 24.9392 5.21985 24.6965 5.86579L15.7305 27.1685C15.5381 27.584 15.5233 27.926 15.6864 28.1809C15.9364 28.5719 16.488 28.5719 16.6694 28.5719H17.3006C17.6879 28.5719 18.0042 28.5253 18.2444 27.9309C18.9296 26.2443 23.7699 15.4128 25.9001 9.89835C27.8711 15.0965 32.3976 25.189 33.4676 27.926C33.7017 28.5241 34.0216 28.5719 34.4151 28.5719H35.0733C35.2633 28.5719 35.7646 28.5719 36.0171 28.1993C36.1874 27.948 36.1887 27.6073 36.0207 27.1869L27.1344 5.86824Z" fill="#5B8DEC"/>
<path d="M25.8601 20.2994C24.6687 20.2994 23.6992 21.3351 23.6992 22.6062C23.6992 23.8785 24.6687 24.913 25.8601 24.913C27.0515 24.913 28.0223 23.8785 28.0223 22.6062C28.0223 21.3351 27.0515 20.2994 25.8601 20.2994Z" fill="#5B8DEC"/>
<path d="M93.9128 6.55382L92.9936 5.74976C86.2032 0.0269604 75.8693 -1.60935 67.2759 1.68043C64.2386 2.83014 61.3815 4.60495 59.0196 6.80754C58.8259 6.98281 58.7144 7.23899 58.7168 7.51232C58.7181 7.7881 58.8345 8.04672 59.0257 8.21464C59.4167 8.57623 60.021 8.56029 60.3887 8.1889C62.1782 6.53543 64.1835 5.17981 66.3493 4.16125C73.5527 0.686388 82.7651 1.51619 89.2846 6.22778C90.1843 6.83941 91.0839 7.56135 92.0167 8.42056C92.2618 8.67673 92.6124 8.82627 93.0021 8.8324C93.3601 8.8324 93.691 8.70002 93.9214 8.47082C94.1886 8.22568 94.3382 7.87145 94.3345 7.49883C94.3308 7.1348 94.1776 6.78915 93.9128 6.55382Z" fill="#5B8DEC"/>
<path d="M84.9619 5.98259H84.3601C83.9544 5.98259 83.3427 5.9826 83.3427 6.9987V23.2601L76.0927 5.8686L76.0903 5.86248C75.8439 5.26801 75.5301 5.22021 75.1465 5.22021H74.601C74.2885 5.22021 73.8987 5.22021 73.6548 5.86493L64.6888 27.1688C64.4964 27.5843 64.4829 27.9251 64.6459 28.1813C64.8959 28.5723 65.4475 28.5723 65.6289 28.5723H66.2589C66.6475 28.5723 66.9625 28.5257 67.2039 27.9312C67.8891 26.2447 72.7282 15.4131 74.8584 9.89748C76.8294 15.0969 81.3571 25.1881 82.4259 27.9251C82.6612 28.5245 82.9799 28.5723 83.3734 28.5723H84.0328H84.3601H84.9619C85.3664 28.5723 85.978 28.5723 85.978 27.5562V6.9987C85.978 5.9826 85.3664 5.98259 84.9619 5.98259Z" fill="#5B8DEC"/>
<path d="M74.8172 20.2994C73.6258 20.2994 72.6562 21.3351 72.6562 22.6062C72.6562 23.8784 73.6258 24.9129 74.8172 24.9129C76.0085 24.9129 76.9793 23.8784 76.9793 22.6062C76.9793 21.3351 76.0085 20.2994 74.8172 20.2994Z" fill="#5B8DEC"/>
</svg>
